<svg width="200" height="200" viewBox="0 0 200 200" fill="none" xmlns="http://www.w3.org/2000/svg">
<circle cx="100" cy="100" r="100" fill="#1D1D1D"/>
<path d="M109.701 80.8738C109.907 80.7342 110.114 80.5946 110.343 80.4782L111.65 79.7569L108.119 76.569L112.2 72.8924L110.87 72.1943C108.372 70.868 107.455 68.4247 106.515 65.8185C105.46 62.9564 104.383 60.0244 101.173 58.3258L100.532 58L89.0696 68.4014L90.3992 69.0995C92.8979 70.4259 93.8149 72.8691 94.7548 75.4753C94.7777 75.5219 94.8006 75.5917 94.8235 75.6382C94.6172 76.1734 94.4109 76.6853 94.2275 77.2205C93.7461 78.5236 93.2876 79.7802 92.6228 80.8971H73V86.7842H77.218L80.542 122.293V122.317L82.33 141.421H116.693L118.481 122.317V122.293L121.805 86.7842H126.023V80.8738H109.701ZM108.142 79.4078C107.569 79.85 107.065 80.3386 106.629 80.8738H94.9381C95.3966 79.9198 95.7634 78.9192 96.1302 77.9419C97.0013 75.5684 97.8266 73.3113 99.8897 71.9384L108.142 79.4078ZM92.577 68.0291L100.83 60.5596C102.893 61.9325 103.718 64.1897 104.589 66.5631C105.483 69.0064 106.423 71.5428 108.692 73.288L106.583 75.1961L100.188 69.402L99.5458 69.7278C97.9183 70.5887 96.8408 71.7522 96.0385 73.0786C95.282 71.1705 94.3421 69.3787 92.577 68.0291ZM103.81 86.7842C103.007 88.925 102.159 90.9029 100.302 92.1595L94.388 86.7842C94.3651 86.7842 103.81 86.7842 103.81 86.7842ZM105.689 87.6452L105.346 93.2299H102.297C104.039 91.7174 104.933 89.6929 105.689 87.6452ZM98.3997 93.2299H93.6773L93.3793 88.6691L98.3997 93.2299ZM80.6795 86.7842H90.4451L90.8577 93.2531H81.2755L80.6795 86.7842ZM82.1008 102.072L81.5048 95.7895H90.9952L91.3849 102.072H82.1008ZM82.3529 104.632H91.5683L91.958 110.915H82.926L82.3529 104.632ZM83.1782 113.474H92.1414L92.5311 119.757H83.7513L83.1782 113.474ZM84.0035 122.317H92.6916L93.0813 128.599H84.5766L84.0035 122.317ZM85.4477 137.93L84.8058 131.136H93.2418L93.6773 137.93H85.4477ZM102.503 137.93H96.5199L96.0843 131.136H102.939L102.503 137.93ZM103.099 128.576H95.9239L95.5342 122.293H103.489L103.099 128.576ZM103.649 119.757H95.3508L94.9611 113.474H104.039L103.649 119.757ZM104.199 110.915H94.8006L94.4109 104.632H104.612L104.199 110.915ZM104.772 102.072H94.2275L93.8378 95.7895H105.162L104.772 102.072ZM113.552 137.93H105.323L105.758 131.136H114.194L113.552 137.93ZM114.423 128.576H105.919L106.308 122.293H114.997L114.423 128.576ZM115.249 119.757H106.469L106.859 113.474H115.822L115.249 119.757ZM116.074 110.915H107.042L107.432 104.632H116.647L116.074 110.915ZM116.899 102.072H107.592L107.982 95.7895H117.472L116.899 102.072ZM117.724 93.2299H108.165L108.578 86.761H118.343L117.724 93.2299Z" fill="#999999"/>
</svg>
