<svg width="200" height="200" viewBox="0 0 200 200" fill="none" xmlns="http://www.w3.org/2000/svg">
<circle cx="100" cy="100" r="100" fill="#1D1D1D"/>
<path d="M122.85 82.6194C130.85 93.81 129.85 109.477 120.05 119.65C109.05 130.841 91.25 130.841 80.25 119.65C69.25 108.459 69.25 90.351 80.25 79.1605C90.25 68.9872 105.65 68.1733 116.65 76.3119" stroke="#999999" stroke-width="3" stroke-miterlimit="22.9256" stroke-linecap="round" stroke-linejoin="round"/>
<path d="M117.45 88.3164C122.45 96.2516 121.65 107.239 114.65 114.157C106.65 122.295 93.8496 122.295 85.8496 114.157C77.8496 106.018 77.8496 92.9961 85.8496 84.8575C92.6496 77.7362 103.25 76.9223 111.25 82.009" stroke="#999999" stroke-width="3" stroke-miterlimit="22.9256" stroke-linecap="round" stroke-linejoin="round"/>
<path d="M111.651 94.0134C113.851 98.6931 113.051 104.594 109.051 108.459C104.051 113.546 96.0508 113.546 91.0508 108.459C86.0508 103.373 86.0508 95.2342 91.0508 90.1476C94.8508 86.2817 100.651 85.2644 105.251 87.5025" stroke="#999999" stroke-width="3" stroke-miterlimit="22.9256" stroke-linecap="round" stroke-linejoin="round"/>
<path d="M104.85 100.931C104.65 101.745 104.25 102.355 103.65 102.966C101.65 105 98.6504 105 96.6504 102.966C94.6504 100.931 94.6504 97.8792 96.6504 95.8446C97.2504 95.2342 97.8504 94.8272 98.6504 94.6238" stroke="#999999" stroke-width="3" stroke-miterlimit="22.9256" stroke-linecap="round" stroke-linejoin="round"/>
<path d="M100.65 99.1001L135.65 63.4937" stroke="#999999" stroke-width="3" stroke-miterlimit="22.9256" stroke-linecap="round" stroke-linejoin="round"/>
<path d="M123.85 77.1259L130.85 79.364L139.25 70.8184L132.05 68.5803" stroke="#999999" stroke-width="3" stroke-miterlimit="22.9256" stroke-linecap="round" stroke-linejoin="round"/>
<path d="M122.45 75.7015L120.25 68.5802L128.45 60.0347L130.85 67.3594" stroke="#999999" stroke-width="3" stroke-miterlimit="22.9256" stroke-linecap="round" stroke-linejoin="round"/>
</svg>
