<svg width="118" height="117" viewBox="0 0 118 117" fill="none" xmlns="http://www.w3.org/2000/svg">
<path d="M88.3413 31.1502L84.6444 20.211L77.0192 28.8822L88.3413 31.1502ZM25.4983 78.5931L26.9236 67.1344L16.2874 71.6294L25.4983 78.5931ZM22.9473 69.9992C17.8691 53.9593 22.2871 37.1829 37.0237 26.7802L35.8703 25.1463C20.3537 36.0996 15.7257 53.8155 21.0406 70.6029L22.9473 69.9992ZM37.0237 26.7802C51.3437 16.6716 69.0524 17.9803 81.0246 26.0367L82.1411 24.3774C69.536 15.8951 50.9217 14.5215 35.8703 25.1463L37.0237 26.7802Z" fill="white"/>
<path d="M30.3254 85.4964L34.0386 96.4301L41.6509 87.7475L30.3254 85.4964ZM93.0977 37.9599L91.6895 49.4208L102.319 44.9099L93.0977 37.9599ZM95.6615 46.55C100.764 62.5823 96.3706 79.3653 81.6495 89.7899L82.8053 91.4221C98.3056 80.4457 102.907 62.723 97.5673 45.9435L95.6615 46.55ZM81.6495 89.7899C67.3445 99.9198 49.6339 98.6375 37.6498 90.599L36.5357 92.2599C49.1534 100.723 67.7698 102.069 82.8053 91.4221L81.6495 89.7899Z" fill="white"/>
<rect x="42.4287" y="51.9897" width="6.4244" height="22.8423" fill="white"/>
<rect x="55.9912" y="39.1411" width="6.4244" height="35.6911" fill="white"/>
<rect x="69.5537" y="46.2791" width="6.4244" height="28.5529" fill="white"/>
</svg>
