<?xml version="1.0" encoding="utf-8"?>
<!-- Generator: Adobe Illustrator 24.1.0, SVG Export Plug-In . SVG Version: 6.00 Build 0)  -->
<svg version="1.1" id="Layer_1" xmlns="http://www.w3.org/2000/svg" xmlns:xlink="http://www.w3.org/1999/xlink" x="0px" y="0px"
	 viewBox="0 0 36 31" style="enable-background:new 0 0 36 31;" xml:space="preserve">
<style type="text/css">
	.st0{fill:none;stroke:#FFFFFF;stroke-width:1.44;stroke-linecap:round;stroke-linejoin:round;stroke-miterlimit:22.9256;}
</style>
<path class="st0" d="M13.3,19.3L8,23.6l5.3,4.3"/>
<path class="st0" d="M23,19.3l5.3,4.3L23,27.9"/>
<path class="st0" d="M19.8,17.2L17.1,30"/>
<path class="st0" d="M34.6,1H1.7v29c18.4,0,23.5,0,32.9,0V1z"/>
<path class="st0" d="M34.6,7.9H1.7"/>
<path class="st0" d="M30.5,3.8c-0.4,0-0.7,0.3-0.7,0.7s0.3,0.7,0.7,0.7s0.7-0.3,0.7-0.7C31.2,4.2,30.9,3.8,30.5,3.8z"/>
<path class="st0" d="M25.8,3.8c-0.4,0-0.7,0.3-0.7,0.7C25,5,25.4,5.3,25.8,5.3s0.7-0.3,0.7-0.7S26.2,3.8,25.8,3.8z"/>
</svg>
