<?xml version="1.0" encoding="utf-8"?>
<!-- Generator: Adobe Illustrator 24.1.0, SVG Export Plug-In . SVG Version: 6.00 Build 0)  -->
<svg version="1.1" id="Layer_1" xmlns="http://www.w3.org/2000/svg" xmlns:xlink="http://www.w3.org/1999/xlink" x="0px" y="0px"
	 viewBox="0 0 35 33" style="enable-background:new 0 0 35 33;" xml:space="preserve">
<style type="text/css">
	.st0{clip-path:url(#SVGID_2_);}
	.st1{fill:none;stroke:#FFFFFF;stroke-width:1.44;stroke-linecap:round;stroke-linejoin:round;stroke-miterlimit:22.9256;}
	.st2{fill:none;stroke:#FFFFFF;stroke-width:1.44;stroke-miterlimit:22.9256;}
</style>
<g>
	<defs>
		<rect id="SVGID_1_" width="35" height="32.9"/>
	</defs>
	<clipPath id="SVGID_2_">
		<use xlink:href="#SVGID_1_"  style="overflow:visible;"/>
	</clipPath>
	<g class="st0">
		<path class="st1" d="M1.2,21.7h4.9v10.4H1.2V21.7z"/>
		<path class="st1" d="M10.5,12.5h4.9v19.6h-4.9V12.5z"/>
		<path class="st1" d="M19.7,20.8h4.9v11.3h-4.9V20.8z"/>
		<path class="st1" d="M29,16.5h4.9v15.6H29V16.5z"/>
		<path class="st2" d="M3.7,10.3c-1.6,0-2.8,1.2-2.8,2.8s1.2,2.8,2.8,2.8s2.8-1.2,2.8-2.8S5.2,10.3,3.7,10.3z M12.9,0.8
			c-1.6,0-2.9,1.3-2.9,2.9s1.2,2.8,2.8,2.8c1.6,0,2.8-1.2,2.8-2.8C15.7,2.1,14.5,0.8,12.9,0.8z M22.2,9.3c-1.6,0-2.8,1.2-2.8,2.8
			s1.2,2.8,2.8,2.8c1.6,0,2.8-1.2,2.8-2.8S23.7,9.3,22.2,9.3z M31.4,4.9c-1.6,0-2.8,1.2-2.8,2.8s1.2,2.8,2.8,2.8
			c1.6,0,2.8-1.2,2.8-2.8C34.2,6.2,33,4.9,31.4,4.9z"/>
		<path class="st1" d="M6.1,10.5l4.3-4.3"/>
		<path class="st1" d="M15.4,5.9l4.5,4"/>
		<path class="st1" d="M25,10.8l3.2-1.6"/>
	</g>
</g>
</svg>
