<?xml version="1.0" encoding="utf-8"?>
<!-- Generator: Adobe Illustrator 24.1.0, SVG Export Plug-In . SVG Version: 6.00 Build 0)  -->
<svg version="1.1" id="Layer_1" xmlns="http://www.w3.org/2000/svg" xmlns:xlink="http://www.w3.org/1999/xlink" x="0px" y="0px"
	 viewBox="0 0 35 39" style="enable-background:new 0 0 35 39;" xml:space="preserve">
<style type="text/css">
	.st0{clip-path:url(#SVGID_2_);}
	.st1{fill:none;stroke:#FFFFFF;stroke-width:1.44;stroke-linecap:round;stroke-linejoin:round;stroke-miterlimit:22.9256;}
</style>
<g>
	<defs>
		<rect id="SVGID_1_" width="35" height="38.5"/>
	</defs>
	<clipPath id="SVGID_2_">
		<use xlink:href="#SVGID_1_"  style="overflow:visible;"/>
	</clipPath>
	<g class="st0">
		<path class="st1" d="M13,28.7c-0.4-6.2-5.2-3.1-5.8-11.4c-0.3-5.3,4.6-9.6,10.2-9.6c5.7,0,10.6,4.4,10.2,9.6
			c-0.5,7.2-4,5.8-5.3,9.5"/>
		<path class="st1" d="M13.2,36l9.2-2.4"/>
		<path class="st1" d="M13.2,32.5l9.2-2.4"/>
		<path class="st1" d="M13.2,29l9.2-2.4"/>
		<path class="st1" d="M20.8,34.9c0,1.6-1.5,2.8-3.3,2.8c-1.2,0-2.2-0.5-2.7-1.3"/>
		<path class="st1" d="M17.8,0.8v3.2"/>
		<path class="st1" d="M29.1,5.1l-2.3,2.2"/>
		<path class="st1" d="M34.2,17.1h-3.2"/>
		<path class="st1" d="M28.6,28.8l-2.2-2.2"/>
		<path class="st1" d="M6.3,5.1l2.2,2.2"/>
		<path class="st1" d="M0.8,16.6h3.2"/>
		<path class="st1" d="M5.9,28.8l2.2-2.2"/>
		<path class="st1" d="M13.7,18.8l3.4,4.7l5.1-8.9"/>
	</g>
</g>
</svg>
