<?xml version="1.0" encoding="utf-8"?>
<!-- Generator: Adobe Illustrator 24.1.0, SVG Export Plug-In . SVG Version: 6.00 Build 0)  -->
<svg version="1.1" id="Layer_1" xmlns="http://www.w3.org/2000/svg" xmlns:xlink="http://www.w3.org/1999/xlink" x="0px" y="0px"
	 viewBox="0 0 35 35" style="enable-background:new 0 0 35 35;" xml:space="preserve">
<style type="text/css">
	.st0{clip-path:url(#SVGID_2_);}
	.st1{fill:none;stroke:#FFFFFF;stroke-width:1.44;stroke-miterlimit:22.9256;}
	.st2{fill:none;stroke:#FFFFFF;stroke-width:1.44;stroke-linecap:round;stroke-linejoin:round;stroke-miterlimit:22.9256;}
</style>
<g>
	<defs>
		<rect id="SVGID_1_" width="35" height="35"/>
	</defs>
	<clipPath id="SVGID_2_">
		<use xlink:href="#SVGID_1_"  style="overflow:visible;"/>
	</clipPath>
	<g class="st0">
		<path class="st1" d="M17.6,0.7c9.3,0,16.7,7.6,16.7,16.7c0,9.2-7.6,16.7-16.7,16.7c-9.2,0-16.8-7.4-16.8-16.6
			C0.7,8.4,8.3,0.7,17.6,0.7z"/>
		<path class="st2" d="M17.6,0.7v5.7"/>
		<path class="st2" d="M0.7,17.6h5.7"/>
		<path class="st2" d="M34.3,17.6h-5.7"/>
		<path class="st2" d="M26,28.6c0.1-1,0.2-3.5-1.2-4.7c-1.3-1.2-3.1-1.1-4.3-2.1c-1.2-1-1.3-2.3-0.4-3.8c0.7-1.1,1.3-2.9,1.3-4.3
			c0-2.4-1.6-4.4-3.9-4.4s-3.9,1.9-3.9,4.4c0,1.4,0.6,3.2,1.3,4.3c0.9,1.4,0.7,2.8-0.4,3.8c-1.1,1-3,1-4.3,2.1
			c-1.5,1.2-1.4,3.7-1.3,4.7"/>
		<path class="st2" d="M6.2,25.6c0.3-1.5,0.7-3.2,1.8-4.2c1-0.9,1.8-0.7,2.8-1.4c0.9-0.8,1-1.5,0.3-2.7c-0.6-0.9-1-2.2-1-3.4
			c0-1.8,1.3-3.4,3-3.4c0.4,0,0.8,0.1,1.2,0.3"/>
		<path class="st2" d="M28.8,25.6c-0.2-1.4-0.7-3.2-1.7-4.2c-1-0.9-1.8-0.7-2.8-1.4c-0.9-0.8-1-1.5-0.3-2.7c0.6-0.9,1-2.2,1-3.4
			c0-1.8-1.3-3.4-3-3.4c-0.4,0-0.8,0.1-1.2,0.3"/>
	</g>
</g>
</svg>
