<?xml version="1.0" encoding="utf-8"?>
<!-- Generator: Adobe Illustrator 24.1.0, SVG Export Plug-In . SVG Version: 6.00 Build 0)  -->
<svg version="1.1" id="Layer_1" xmlns="http://www.w3.org/2000/svg" xmlns:xlink="http://www.w3.org/1999/xlink" x="0px" y="0px"
	 viewBox="0 0 35 43" style="enable-background:new 0 0 35 43;" xml:space="preserve">
<style type="text/css">
	.st0{clip-path:url(#SVGID_2_);}
	.st1{fill:none;stroke:#FFFFFF;stroke-width:1.44;stroke-linecap:round;stroke-linejoin:round;stroke-miterlimit:22.9256;}
</style>
<g>
	<defs>
		<rect id="SVGID_1_" width="35" height="42.5"/>
	</defs>
	<clipPath id="SVGID_2_">
		<use xlink:href="#SVGID_1_"  style="overflow:visible;"/>
	</clipPath>
	<g class="st0">
		<path class="st1" d="M17.1,17.5V20"/>
		<path class="st1" d="M17.1,30.7v2.5"/>
		<path class="st1" d="M20.8,21.3c-1.2-0.4-2.1-0.7-3.2-0.8c-5.5-0.6-6.2,4.9-0.4,4.9c5.8,0,5.2,5.5-0.4,4.9c-1.1-0.1-2-0.5-3.2-0.8
			"/>
		<path class="st1" d="M17.1,8.9c9,0,16.3,7.3,16.3,16.3c0,9-7.3,16.3-16.3,16.3C8.2,41.7,0.8,34.3,0.8,25.4
			C0.8,16.3,8.2,8.9,17.1,8.9z"/>
		<path class="st1" d="M15.3,8.9V5.3"/>
		<path class="st1" d="M19.1,5.3v3.6"/>
		<path class="st1" d="M27.7,12.4l4.1-4.1l2.3,2.3l-4.1,4.1"/>
		<path class="st1" d="M12.9,0.8h8.6c0.4,0,0.7,0.4,0.7,0.7V4c0,0.4-0.4,0.7-0.7,0.7h-8.6c-0.4,0-0.7-0.4-0.7-0.7V1.5
			C12.2,1.2,12.6,0.8,12.9,0.8z"/>
		<path class="st1" d="M17.1,12.3c7.2,0,13,5.9,13,13s-5.9,13-13,13c-7.2,0-13-5.9-13-13C4.2,18.1,10,12.3,17.1,12.3z"/>
	</g>
</g>
</svg>
