<svg width="173" height="19" viewBox="0 0 173 19" fill="none" xmlns="http://www.w3.org/2000/svg">
<path d="M23.0791 12.6078C23.0249 12.6095 22.9725 12.6272 22.9283 12.6586C22.8841 12.6899 22.8501 12.7336 22.8306 12.7842C22.811 12.8347 22.8068 12.8899 22.8184 12.9429C22.8301 12.9958 22.857 13.0441 22.896 13.0819C22.9349 13.1196 22.9841 13.145 23.0373 13.1549C23.0906 13.1649 23.1457 13.1589 23.1956 13.1378C23.2455 13.1167 23.2881 13.0813 23.318 13.0361C23.348 12.991 23.364 12.938 23.364 12.8838C23.364 12.8468 23.3566 12.8101 23.3422 12.7761C23.3277 12.742 23.3066 12.7111 23.28 12.6854C23.2535 12.6597 23.222 12.6395 23.1875 12.6262C23.1529 12.6128 23.1161 12.6066 23.0791 12.6078V12.6078Z" fill="white"/>
<path d="M24.3728 13.4237C24.3096 13.4237 24.2479 13.4425 24.1954 13.4775C24.1429 13.5126 24.1019 13.5625 24.0778 13.6208C24.0536 13.6792 24.0473 13.7434 24.0596 13.8053C24.0719 13.8673 24.1023 13.9242 24.147 13.9688C24.1916 14.0135 24.2485 14.0439 24.3105 14.0562C24.3724 14.0685 24.4366 14.0622 24.495 14.038C24.5533 14.0139 24.6032 13.9729 24.6382 13.9204C24.6733 13.8679 24.6921 13.8062 24.6921 13.743C24.6921 13.6583 24.6584 13.5771 24.5985 13.5173C24.5387 13.4574 24.4574 13.4237 24.3728 13.4237V13.4237Z" fill="white"/>
<path d="M25.6412 14.2486C25.5686 14.2468 25.4971 14.2669 25.4359 14.3062C25.3748 14.3454 25.3268 14.4021 25.2982 14.4689C25.2696 14.5357 25.2616 14.6096 25.2754 14.6809C25.2891 14.7523 25.3239 14.8179 25.3753 14.8692C25.4267 14.9206 25.4923 14.9554 25.5636 14.9692C25.635 14.9829 25.7088 14.975 25.7756 14.9464C25.8424 14.9178 25.8991 14.8698 25.9384 14.8086C25.9777 14.7475 25.9977 14.676 25.996 14.6034C25.996 14.5093 25.9586 14.419 25.8921 14.3525C25.8255 14.286 25.7353 14.2486 25.6412 14.2486Z" fill="white"/>
<path d="M26.9006 15.0823C26.8192 15.0806 26.7391 15.1032 26.6707 15.1474C26.6023 15.1915 26.5486 15.2551 26.5166 15.33C26.4847 15.4049 26.4758 15.4877 26.4913 15.5676C26.5068 15.6476 26.5458 15.7211 26.6034 15.7787C26.661 15.8363 26.7345 15.8753 26.8144 15.8908C26.8944 15.9062 26.9771 15.8974 27.0521 15.8654C27.127 15.8335 27.1906 15.7798 27.2347 15.7114C27.2789 15.6429 27.3015 15.5628 27.2998 15.4814C27.2998 15.3756 27.2577 15.2741 27.1829 15.1992C27.108 15.1244 27.0065 15.0823 26.9006 15.0823Z" fill="white"/>
<path d="M28.1691 15.8894C28.0514 15.8894 27.9386 15.9361 27.8555 16.0193C27.7723 16.1025 27.7256 16.2153 27.7256 16.3329C27.7256 16.4505 27.7723 16.5633 27.8555 16.6464C27.9386 16.7296 28.0514 16.7763 28.1691 16.7763C28.286 16.7741 28.3974 16.7266 28.4801 16.6439C28.5628 16.5613 28.6102 16.4498 28.6125 16.3329C28.6125 16.2153 28.5658 16.1025 28.4826 16.0193C28.3995 15.9361 28.2867 15.8894 28.1691 15.8894Z" fill="white"/>
<path d="M26.7322 13.5657C26.7322 13.4937 26.7108 13.4234 26.6709 13.3636C26.6309 13.3038 26.5741 13.2572 26.5077 13.2297C26.4412 13.2022 26.3681 13.195 26.2976 13.209C26.227 13.223 26.1622 13.2577 26.1114 13.3085C26.0605 13.3594 26.0259 13.4242 26.0119 13.4947C25.9978 13.5653 26.005 13.6384 26.0326 13.7048C26.0601 13.7713 26.1067 13.8281 26.1665 13.868C26.2263 13.908 26.2966 13.9293 26.3685 13.9293C26.465 13.9293 26.5575 13.891 26.6257 13.8228C26.6939 13.7546 26.7322 13.6621 26.7322 13.5657V13.5657Z" fill="white"/>
<path d="M28.0361 14.426C28.0361 14.3202 27.9941 14.2187 27.9192 14.1438C27.8444 14.069 27.7428 14.0269 27.637 14.0269C27.5303 14.0269 27.4279 14.0687 27.3516 14.1433C27.2753 14.2179 27.2313 14.3194 27.229 14.426C27.2313 14.5335 27.275 14.636 27.351 14.712C27.427 14.788 27.5295 14.8318 27.637 14.834C27.7437 14.8317 27.8452 14.7877 27.9198 14.7114C27.9944 14.6352 28.0361 14.5327 28.0361 14.426Z" fill="white"/>
<path d="M29.3401 15.2952C29.3401 15.1776 29.2933 15.0648 29.2102 14.9816C29.127 14.8984 29.0142 14.8517 28.8966 14.8517C28.779 14.8517 28.6662 14.8984 28.583 14.9816C28.4998 15.0648 28.4531 15.1776 28.4531 15.2952C28.4554 15.4121 28.5028 15.5236 28.5855 15.6062C28.6682 15.6889 28.7797 15.7364 28.8966 15.7386C29.0142 15.7386 29.127 15.6919 29.2102 15.6088C29.2933 15.5256 29.3401 15.4128 29.3401 15.2952Z" fill="white"/>
<path d="M28.4528 13.7519C28.5318 13.7519 28.6089 13.7285 28.6746 13.6846C28.7402 13.6408 28.7914 13.5784 28.8216 13.5055C28.8518 13.4326 28.8597 13.3523 28.8443 13.2749C28.8289 13.1975 28.7909 13.1264 28.735 13.0705C28.6792 13.0147 28.6081 12.9767 28.5307 12.9613C28.4533 12.9459 28.373 12.9538 28.3001 12.984C28.2272 13.0142 28.1648 13.0654 28.121 13.131C28.0771 13.1967 28.0537 13.2738 28.0537 13.3528C28.0537 13.4586 28.0958 13.5601 28.1706 13.635C28.2455 13.7098 28.347 13.7519 28.4528 13.7519V13.7519Z" fill="white"/>
<path d="M29.7211 14.6566C29.8387 14.6566 29.9515 14.6099 30.0346 14.5267C30.1178 14.4436 30.1645 14.3308 30.1645 14.2131C30.1645 14.0955 30.1178 13.9827 30.0346 13.8996C29.9515 13.8164 29.8387 13.7697 29.7211 13.7697C29.6034 13.7697 29.4906 13.8164 29.4075 13.8996C29.3243 13.9827 29.2776 14.0955 29.2776 14.2131C29.2776 14.3308 29.3243 14.4436 29.4075 14.5267C29.4906 14.6099 29.6034 14.6566 29.7211 14.6566Z" fill="white"/>
<path d="M32.586 0.244849C30.484 0.244849 27.7256 1.59298 24.1513 4.32473C22.8386 5.32696 21.6767 6.31146 20.8608 7.03874L18.2443 9.43345C15.2376 12.0942 11.1489 15.0477 9.14441 15.0655C7.70594 15.0179 6.3417 14.4155 5.33765 13.3843C4.33359 12.3531 3.76766 10.9733 3.75849 9.53408C3.74931 8.09485 4.2976 6.70795 5.28843 5.66405C6.27926 4.62016 7.63571 4.00033 9.07346 3.93448C9.622 3.96016 10.1607 4.08957 10.6611 4.31586H10.7586C10.8865 4.31354 11.0083 4.26112 11.0978 4.16989C11.1874 4.07865 11.2376 3.9559 11.2376 3.82805C11.2246 3.72605 11.1813 3.63028 11.1134 3.5531L11.3263 3.19833C11.3962 3.23846 11.4764 3.25698 11.5569 3.25154C11.6839 3.25154 11.8057 3.20108 11.8955 3.11127C11.9853 3.02145 12.0358 2.89963 12.0358 2.7726C12.0352 2.69383 12.0155 2.61638 11.9784 2.54688C11.9414 2.47737 11.888 2.41788 11.8229 2.37348L11.9737 2.1074C12.0604 2.17402 12.166 2.2113 12.2753 2.21384C12.3389 2.21385 12.4019 2.20117 12.4606 2.17655C12.5193 2.15193 12.5725 2.11585 12.6171 2.07044C12.6617 2.02502 12.6968 1.97117 12.7203 1.91203C12.7439 1.8529 12.7554 1.78966 12.7542 1.72602C12.7543 1.6327 12.7276 1.54132 12.6773 1.46271C12.627 1.38411 12.5552 1.32158 12.4704 1.28256V1.28256C11.411 0.748446 10.25 0.446095 9.06459 0.395627C6.64644 0.409741 4.33293 1.38388 2.63302 3.10375C0.933113 4.82363 -0.0139582 7.14834 0.000155514 9.56649C0.0142692 11.9846 0.988412 14.2981 2.70828 15.9981C4.42815 17.698 6.75287 18.645 9.17102 18.6309C11.273 18.6309 14.0314 17.2828 17.6057 14.551C18.9184 13.5488 20.0803 12.5554 20.8962 11.837L23.5127 9.43345C26.5194 6.77266 30.6081 3.81918 32.6126 3.81031C33.3429 3.80565 34.0669 3.94488 34.7434 4.22004C35.4199 4.49521 36.0356 4.90092 36.5553 5.41402C37.0749 5.92712 37.4885 6.53755 37.7723 7.21047C38.056 7.88338 38.2045 8.6056 38.2091 9.33589C38.2138 10.0662 38.0746 10.7902 37.7994 11.4667C37.5242 12.1432 37.1185 12.7589 36.6054 13.2785C36.0923 13.7982 35.4819 14.2118 34.809 14.4955C34.1361 14.7793 33.4138 14.9278 32.6836 14.9324C32.1415 14.9082 31.6089 14.7818 31.1137 14.5599H31.0605C30.9326 14.5622 30.8108 14.6147 30.7213 14.7059C30.6317 14.7971 30.5815 14.9199 30.5815 15.0477C30.5827 15.1545 30.6203 15.2578 30.688 15.3404L30.4751 15.7041C30.4044 15.6649 30.3253 15.6436 30.2445 15.642C30.1167 15.6443 29.9949 15.6967 29.9053 15.7879C29.8157 15.8792 29.7655 16.0019 29.7656 16.1298C29.7662 16.2086 29.7859 16.286 29.8229 16.3555C29.86 16.425 29.9133 16.4845 29.9784 16.5289L29.8188 16.795C29.7382 16.7238 29.6336 16.6858 29.5261 16.6885C29.4624 16.6885 29.3994 16.7012 29.3407 16.7258C29.282 16.7505 29.2288 16.7865 29.1842 16.8319C29.1397 16.8774 29.1046 16.9312 29.081 16.9904C29.0575 17.0495 29.046 17.1127 29.0471 17.1764C29.0466 17.2687 29.0732 17.3591 29.1236 17.4364C29.1741 17.5137 29.2462 17.5744 29.331 17.611C30.392 18.1408 31.5521 18.4429 32.7368 18.4979C35.1573 18.4779 37.4707 17.4972 39.1681 15.7715C40.8655 14.0458 41.8079 11.7165 41.7879 9.29598C41.7679 6.87548 40.7872 4.56205 39.0615 2.86464C37.3358 1.16722 35.0065 0.224855 32.586 0.244849V0.244849Z" fill="white"/>
<path d="M18.6534 6.23282C18.8059 6.23282 18.9294 6.10926 18.9294 5.95683C18.9294 5.80441 18.8059 5.68085 18.6534 5.68085C18.501 5.68085 18.3774 5.80441 18.3774 5.95683C18.3774 6.10926 18.501 6.23282 18.6534 6.23282Z" fill="white"/>
<path d="M17.384 5.41484C17.4471 5.41484 17.5089 5.39611 17.5614 5.36102C17.6139 5.32594 17.6548 5.27607 17.679 5.21773C17.7031 5.15939 17.7095 5.09519 17.6972 5.03325C17.6848 4.97131 17.6544 4.91442 17.6098 4.86976C17.5651 4.82511 17.5082 4.7947 17.4463 4.78238C17.3843 4.77006 17.3201 4.77638 17.2618 4.80055C17.2035 4.82472 17.1536 4.86564 17.1185 4.91815C17.0834 4.97066 17.0647 5.03239 17.0647 5.09554C17.0647 5.18022 17.0983 5.26144 17.1582 5.32132C17.2181 5.3812 17.2993 5.41484 17.384 5.41484V5.41484Z" fill="white"/>
<path d="M16.1156 4.58992C16.3164 4.58992 16.4792 4.42712 16.4792 4.22628C16.4792 4.02545 16.3164 3.86264 16.1156 3.86264C15.9148 3.86264 15.752 4.02545 15.752 4.22628C15.752 4.42712 15.9148 4.58992 16.1156 4.58992Z" fill="white"/>
<path d="M14.8561 3.7651C14.9351 3.7651 15.0123 3.74169 15.0779 3.69783C15.1435 3.65398 15.1947 3.59164 15.2249 3.51871C15.2551 3.44578 15.263 3.36553 15.2476 3.28811C15.2322 3.21069 15.1942 3.13958 15.1384 3.08376C15.0826 3.02794 15.0114 2.98993 14.934 2.97453C14.8566 2.95913 14.7763 2.96703 14.7034 2.99724C14.6305 3.02745 14.5682 3.0786 14.5243 3.14424C14.4804 3.20987 14.457 3.28704 14.457 3.36598C14.457 3.47183 14.4991 3.57335 14.5739 3.6482C14.6488 3.72305 14.7503 3.7651 14.8561 3.7651Z" fill="white"/>
<path d="M13.5878 2.94913C13.8327 2.94913 14.0312 2.75058 14.0312 2.50566C14.0312 2.26074 13.8327 2.06219 13.5878 2.06219C13.3428 2.06219 13.1443 2.26074 13.1443 2.50566C13.1443 2.75058 13.3428 2.94913 13.5878 2.94913Z" fill="white"/>
<path d="M15.0247 5.27288C15.0247 5.3448 15.046 5.41511 15.0859 5.47491C15.1259 5.53471 15.1827 5.58132 15.2491 5.60884C15.3156 5.63637 15.3887 5.64357 15.4592 5.62954C15.5298 5.61551 15.5946 5.58087 15.6454 5.53002C15.6963 5.47916 15.7309 5.41436 15.745 5.34383C15.759 5.27329 15.7518 5.20017 15.7243 5.13372C15.6967 5.06728 15.6501 5.01048 15.5903 4.97053C15.5305 4.93057 15.4602 4.90924 15.3883 4.90924C15.2919 4.90924 15.1994 4.94755 15.1312 5.01575C15.063 5.08394 15.0247 5.17644 15.0247 5.27288V5.27288Z" fill="white"/>
<path d="M13.7209 4.43913C13.7209 4.54581 13.7627 4.64826 13.8373 4.72453C13.9119 4.80079 14.0134 4.8448 14.1201 4.84712C14.2276 4.84485 14.33 4.80114 14.4061 4.72511C14.4821 4.64909 14.5258 4.54662 14.5281 4.43913C14.5257 4.33247 14.4817 4.23096 14.4055 4.15635C14.3292 4.08175 14.2268 4.03998 14.1201 4.04001C14.0142 4.04001 13.9127 4.08206 13.8378 4.15691C13.763 4.23176 13.7209 4.33327 13.7209 4.43913V4.43913Z" fill="white"/>
<path d="M12.4348 3.55217C12.4348 3.66978 12.4815 3.78258 12.5647 3.86575C12.6479 3.94891 12.7607 3.99563 12.8783 3.99563C12.9959 3.99563 13.1087 3.94891 13.1919 3.86575C13.275 3.78258 13.3217 3.66978 13.3217 3.55217C13.3195 3.43527 13.272 3.32378 13.1893 3.2411C13.1067 3.15843 12.9952 3.11097 12.8783 3.1087C12.7607 3.1087 12.6479 3.15543 12.5647 3.23859C12.4815 3.32176 12.4348 3.43455 12.4348 3.55217Z" fill="white"/>
<path d="M13.322 5.08661C13.243 5.08661 13.1659 5.11002 13.1002 5.15387C13.0346 5.19773 12.9834 5.26006 12.9532 5.33299C12.923 5.40592 12.9151 5.48617 12.9305 5.56359C12.9459 5.64101 12.9839 5.71213 13.0398 5.76795C13.0956 5.82377 13.1667 5.86178 13.2441 5.87718C13.3215 5.89258 13.4018 5.88467 13.4747 5.85447C13.5476 5.82426 13.61 5.7731 13.6538 5.70747C13.6977 5.64183 13.7211 5.56467 13.7211 5.48573C13.7211 5.43331 13.7108 5.38141 13.6907 5.33299C13.6707 5.28457 13.6413 5.24057 13.6042 5.20351C13.5671 5.16645 13.5231 5.13705 13.4747 5.11699C13.4263 5.09693 13.3744 5.08661 13.322 5.08661V5.08661Z" fill="white"/>
<path d="M12.0358 4.18192C11.9181 4.18192 11.8053 4.22864 11.7222 4.3118C11.639 4.39497 11.5923 4.50777 11.5923 4.62538C11.5946 4.74228 11.642 4.85377 11.7247 4.93645C11.8074 5.01912 11.9188 5.06658 12.0358 5.06885C12.1534 5.06885 12.2662 5.02212 12.3493 4.93896C12.4325 4.85579 12.4792 4.743 12.4792 4.62538C12.4792 4.50777 12.4325 4.39497 12.3493 4.3118C12.2662 4.22864 12.1534 4.18192 12.0358 4.18192Z" fill="white"/>
<path d="M58.9634 0.368134H61.8104L72.3117 13.3085V0.368134H75.6199V18.63H72.7463L62.2716 5.68972V18.63H58.9634V0.368134Z" fill="white"/>
<path d="M81.8993 13.2198C81.9212 13.6879 82.038 14.1467 82.2425 14.5683C82.4471 14.99 82.7352 15.3656 83.0894 15.6725C83.4436 15.9794 83.8564 16.2111 84.3029 16.3536C84.7493 16.4961 85.22 16.5464 85.6865 16.5014C86.3556 16.5351 87.0222 16.3971 87.623 16.1006C88.2237 15.8041 88.7387 15.359 89.1189 14.8074H92.17C91.6278 16.066 90.7196 17.1323 89.5633 17.8678C88.407 18.6034 87.0562 18.974 85.6865 18.9316C81.2519 18.9316 78.6709 15.9781 78.6709 12.1023C78.7412 10.3301 79.4965 8.65436 80.7776 7.42788C82.0587 6.2014 83.7657 5.51986 85.5392 5.52675C87.3128 5.53365 89.0145 6.22845 90.286 7.46486C91.5575 8.70126 92.2997 10.3828 92.3562 12.1555V13.2198H81.8993ZM81.8993 11.0557H89.252C89.2173 10.1209 88.8148 9.23763 88.1321 8.59812C87.4494 7.95862 86.5418 7.61462 85.6067 7.64099C84.6597 7.60243 83.7359 7.9397 83.0364 8.5793C82.337 9.21891 81.9187 10.109 81.8727 11.0557H81.8993Z" fill="white"/>
<path d="M102.778 5.60989H106.219L101.633 12.0756L106.352 18.63H102.902L99.9305 14.5679L96.9681 18.63H93.5002L98.2187 12.0934L93.6333 5.62763H97.0746L99.9128 9.60995L102.778 5.60989Z" fill="white"/>
<path d="M109.634 1.72516H112.924V5.60992H116.286V8.32392H112.924V14.2398C112.924 15.5879 113.447 16.191 114.698 16.191C115.186 16.1835 115.669 16.1058 116.135 15.9604V18.6212C115.393 18.847 114.622 18.9636 113.847 18.9671C110.769 18.9671 109.616 17.1134 109.616 14.1156V8.32392H107.195V5.60992H109.616L109.634 1.72516Z" fill="white"/>
<path d="M132.339 18.63L130.725 16.4925C130.026 17.3169 129.149 17.9707 128.159 18.4042C127.169 18.8376 126.093 19.0393 125.013 18.9937C121.262 18.9937 118.45 16.6788 118.45 13.0779C118.45 9.82282 120.667 7.87157 123.612 7.05559L118.627 0.501173V0.368134H131.532V3.08214H124.437L130.503 11.3661L131.86 8.39486H135.044L132.384 13.947L135.807 18.63H132.339ZM129.084 14.3018L125.075 9.02458C123.204 9.64543 121.687 10.7984 121.687 13.0335C121.687 15.0734 123.018 16.4216 125.235 16.4216C126.011 16.456 126.782 16.2744 127.462 15.897C128.141 15.5197 128.703 14.9614 129.084 14.2841V14.3018Z" fill="white"/>
<path d="M156.322 6.31056H152.96C152.457 5.25404 151.649 4.37208 150.641 3.77787C149.633 3.18366 148.47 2.90432 147.302 2.9757C143.364 2.9757 140.996 5.84049 140.996 9.49464C140.996 13.1488 143.364 15.9692 147.302 15.9692C148.47 16.043 149.634 15.7647 150.643 15.1702C151.651 14.5758 152.459 13.6924 152.96 12.6344H156.322C155.705 14.5162 154.496 16.1477 152.875 17.2846C151.253 18.4214 149.307 19.0024 147.328 18.9405C141.466 18.9405 137.572 14.7187 137.572 9.45917C137.572 4.19967 141.466 0.00448278 147.328 0.00448278C149.307 -0.0574382 151.253 0.523531 152.875 1.66037C154.496 2.79721 155.705 4.42873 156.322 6.31056V6.31056Z" fill="white"/>
<path d="M158.433 12.1288C158.363 10.7 158.725 9.28325 159.469 8.06183C160.214 6.84041 161.308 5.8705 162.61 5.27751C163.912 4.68453 165.361 4.49575 166.772 4.7356C168.182 4.97545 169.488 5.63289 170.52 6.62289C171.553 7.6129 172.265 8.88993 172.564 10.2889C172.863 11.6878 172.735 13.1442 172.198 14.4699C171.66 15.7955 170.737 16.9293 169.548 17.7247C168.359 18.5202 166.959 18.9406 165.528 18.9316C164.61 18.9724 163.693 18.8265 162.833 18.5029C161.973 18.1792 161.188 17.6844 160.525 17.0485C159.861 16.4126 159.334 15.6487 158.974 14.8031C158.615 13.9575 158.431 13.0477 158.433 12.1288V12.1288ZM161.643 12.1288C161.618 12.6611 161.701 13.193 161.887 13.6922C162.074 14.1915 162.359 14.6477 162.727 15.0334C163.095 15.419 163.537 15.726 164.027 15.9357C164.517 16.1455 165.044 16.2536 165.577 16.2536C166.11 16.2536 166.637 16.1455 167.127 15.9357C167.617 15.726 168.059 15.419 168.427 15.0334C168.795 14.6477 169.08 14.1915 169.266 13.6922C169.453 13.193 169.536 12.6611 169.51 12.1288C169.536 11.5966 169.453 11.0647 169.266 10.5654C169.08 10.0662 168.795 9.60992 168.427 9.22429C168.059 8.83865 167.617 8.53167 167.127 8.32192C166.637 8.11217 166.11 8.00402 165.577 8.00402C165.044 8.00402 164.517 8.11217 164.027 8.32192C163.537 8.53167 163.095 8.83865 162.727 9.22429C162.359 9.60992 162.074 10.0662 161.887 10.5654C161.701 11.0647 161.618 11.5966 161.643 12.1288V12.1288Z" fill="white"/>
</svg>
